PathFileType	4	(X/Y/Z)	C:\Users\Gabre\Documents\2-Sophmore\Autumn\ME 191\Nick_10292018\Nick_10292018\Upper Extremity\shoulder_flexion.trc
DataRate	CameraRate	NumFrames	NumMarkers	Units	OrigDataRate	OrigDataStartFrame	OrigNumFrames
100.00	100.00	       18	21	mm	100.00	1	       621
Frame#	Time	Back_IMU_O			Back_IMU_D			Back_IMU_X			Back_IMU_Y			C7			R.Acromion			L.Acromion			R.Elbow			R.Radius			R.Ulna			R.Hand			Humerus_IMU_O			Humerus_IMU_D			Humerus_IMU_X			Humerus_IMU_Y			Forearm_IMU_O			Forearm_IMU_D			Forearm_IMU_X			Forearm_IMU_Y			Hand_IMU_O			Scapula_IMU_O			
		X1	Y1	Z1	X2	Y2	Z2	X3	Y3	Z3	X4	Y4	Z4	X5	Y5	Z5	X6	Y6	Z6	X7	Y7	Z7	X8	Y8	Z8	X9	Y9	Z9	X10	Y10	Z10	X11	Y11	Z11	X12	Y12	Z12	X13	Y13	Z13	X14	Y14	Z14	X15	Y15	Z15	X16	Y16	Z16	X17	Y17	Z17	X18	Y18	Z18	X19	Y19	Z19	X20	Y20	Z20	X21	Y21	Z21	

1	0.000	-901.34058	446.55096	1016.64642	-929.10559	526.42505	913.15662	-904.15137	532.37408	1013.01428	-926.69147	441.88171	916.89215	-890.75812	490.32553	1032.62439	-776.93665	318.62738	984.32416	-804.71948	669.90253	986.74091	-771.69550	219.72040	620.57617	-616.69336	246.58313	388.20032	-652.98633	196.91513	384.49408	-579.75494	232.75403	284.58612	-712.08130	261.50479	824.05219	-807.57483	207.07242	760.81781	-809.60547	212.70424	828.26642	-715.43677	255.46764	757.96069	-627.22778	248.13293	462.43442	-688.48761	177.86958	398.10992	-698.81232	181.27075	445.00476	-616.78064	244.00119	416.85510	-599.42755	205.63393	327.15421	-818.92731	291.70071	993.18311	
2	0.010	-901.34216	446.55109	1016.65167	-929.11139	526.42511	913.16418	-904.16077	532.37421	1013.01843	-926.62805	441.96490	916.86432	-890.74402	490.35779	1032.63733	-776.91150	318.70642	984.32825	-804.72491	669.93018	986.77979	-771.61346	219.82256	620.69922	-619.23907	246.88094	387.11850	-653.16132	196.86057	384.67084	-579.62946	232.82748	284.65991	-711.87006	261.49673	823.93671	-807.80872	206.99789	760.91528	-809.60547	212.70424	828.26642	-715.37549	255.34326	758.03333	-627.22778	248.13293	462.43442	-687.01862	177.90913	398.49338	-698.57843	181.24738	444.95938	-616.78064	244.00119	416.85510	-599.67261	205.92876	327.04672	-818.79504	291.74585	993.20691	
3	0.020	-901.40619	446.64435	1016.63519	-929.09766	526.42499	913.16040	-904.14819	532.42780	1013.03064	-926.68182	441.96671	916.89282	-890.70465	490.38586	1032.60120	-776.91150	318.70642	984.32825	-804.73541	669.95551	986.81512	-771.40753	219.82642	620.65125	-619.22949	246.85753	387.13492	-652.95966	196.90907	384.74927	-579.38861	232.86229	284.83105	-712.21527	261.31458	824.27490	-807.50531	207.27115	760.87048	-809.72009	212.69897	828.23163	-715.45819	255.48351	758.00018	-627.22778	248.13293	462.43442	-687.05029	177.88240	398.62372	-698.57843	181.24738	444.95938	-616.78284	243.96603	416.97061	-599.36548	205.61571	327.23346	-818.79504	291.74585	993.20691	
4	0.030	-901.37018	446.64581	1016.60083	-929.11615	526.47266	913.17175	-904.17560	532.42578	1013.02051	-926.64026	441.96555	916.89032	-890.73639	490.39615	1032.58020	-776.89307	318.78094	984.32092	-804.73785	669.95392	986.81451	-771.49597	219.86490	620.72345	-616.21735	246.73645	388.49765	-652.89703	196.89078	384.73181	-579.34241	232.79454	284.78061	-712.19391	261.17780	824.21667	-807.45313	207.11003	760.87805	-809.71808	212.71758	828.24469	-715.28864	255.18245	758.09991	-627.22778	248.13293	462.43442	-687.05029	177.88240	398.62372	-698.51672	181.28676	444.89993	-616.78284	243.96603	416.97061	-599.22729	205.92920	327.37897	-818.79504	291.74585	993.20691	
5	0.040	-901.36017	446.69736	1016.62317	-929.11499	526.47272	913.18036	-904.15607	532.53949	1013.03113	-926.56421	441.98355	916.84747	-890.77875	490.46249	1032.57214	-776.91150	318.70642	984.32825	-804.74280	669.95294	986.81757	-771.30377	219.88258	620.58911	-616.17285	246.75111	388.36777	-652.86353	196.91220	384.80478	-579.35474	232.85521	284.81726	-712.03113	261.18399	824.13629	-807.39240	207.27733	760.90771	-809.60547	212.70424	828.26642	-715.26385	255.19370	757.98468	-627.22821	248.01477	462.39993	-687.05029	177.88240	398.62372	-698.49170	181.24548	445.00046	-616.78284	243.96603	416.97061	-599.07538	205.77003	327.28671	-818.79504	291.74585	993.20691	
6	0.050	-901.31714	446.71307	1016.57904	-929.12500	526.47284	913.18750	-904.17737	532.52344	1013.01208	-926.56525	441.98358	916.84833	-890.77563	490.50180	1032.58118	-776.89307	318.78094	984.32092	-804.74817	669.95190	986.83179	-771.24237	219.89616	620.61316	-616.21381	246.68318	388.44870	-652.81836	196.91512	384.79724	-579.29626	232.85686	284.76410	-712.06659	261.26553	824.29761	-807.39240	207.27733	760.90771	-809.76257	212.71161	828.40308	-715.28864	255.18245	758.09991	-626.71094	248.22035	462.60773	-687.05029	177.88240	398.62372	-698.42999	181.28487	444.94101	-616.78064	244.00119	416.85510	-598.88983	205.81052	327.32840	-818.79657	291.77194	993.17914	
7	0.060	-901.28015	446.78314	1016.50916	-929.16516	526.49396	913.10303	-904.20178	532.56763	1012.98102	-926.55347	441.98328	916.85101	-890.78979	490.54889	1032.55103	-776.89307	318.78094	984.32092	-804.76062	669.97180	986.79370	-771.18994	219.90623	620.63831	-616.02350	246.63698	388.53940	-652.20880	196.89493	384.64532	-579.17719	232.85988	284.89529	-712.09308	261.16577	824.24750	-807.39240	207.27733	760.90771	-809.60468	212.72252	828.27893	-715.45819	255.48351	758.00018	-626.64868	248.09232	462.66742	-687.05029	177.88240	398.62372	-698.42999	181.28487	444.94101	-616.81232	244.07225	416.76520	-598.42859	205.69312	327.52155	-818.69910	291.78073	993.12555	
8	0.070	-901.32458	446.74609	1016.45129	-929.14600	526.50903	913.04175	-904.10754	532.54828	1012.89087	-926.53674	442.05692	916.73462	-890.78644	490.50186	1032.44995	-776.89307	318.78094	984.32092	-804.74744	669.96234	986.80847	-771.26117	219.88309	620.77045	-615.80377	246.65906	388.55142	-652.74237	196.86249	384.91180	-579.04492	232.90051	284.69025	-712.13641	261.19125	824.42224	-807.35345	207.41718	760.94220	-809.60468	212.72252	828.27893	-715.28864	255.18245	758.09991	-623.54486	248.69835	464.30945	-684.86481	177.93437	399.41824	-698.59814	181.26918	445.10803	-616.78064	244.00119	416.85510	-598.05908	205.69977	327.54568	-818.64343	291.79102	993.06274	
9	0.080	-901.31885	446.74585	1016.44305	-929.10620	526.56244	912.96130	-904.12909	532.56915	1012.81610	-926.57465	442.00488	916.71533	-890.77344	490.52432	1032.38342	-776.89307	318.78094	984.32092	-804.76416	670.00781	986.84503	-771.11749	219.88843	620.83051	-615.62469	246.52921	388.63263	-652.14807	196.91582	384.65527	-578.95898	232.89044	284.72220	-712.11444	261.30258	824.30573	-807.39240	207.27733	760.90771	-809.60547	212.70424	828.26642	-714.13373	255.30499	758.42169	-623.29443	248.59390	464.46716	-687.05029	177.88240	398.62372	-698.51941	181.27086	445.14734	-616.78284	243.96603	416.97061	-597.97565	205.69283	327.65280	-818.64990	291.80945	993.03217	
10	0.090	-901.35968	446.74619	1016.40118	-929.16998	526.55682	912.94244	-904.12280	532.56891	1012.78705	-926.56451	442.06537	916.67053	-890.78064	490.53885	1032.33044	-776.86047	318.85483	984.34393	-804.84747	670.03888	986.86707	-771.05499	219.88249	620.96460	-615.61798	246.55029	388.62622	-652.35175	196.91913	384.97336	-578.85547	232.84196	284.85135	-712.05060	261.32016	824.33844	-807.30341	207.29027	760.94226	-809.60547	212.70424	828.26642	-715.28864	255.18245	758.09991	-625.75458	248.12363	463.08453	-687.05029	177.88240	398.62372	-698.35126	181.28656	444.98035	-616.78064	244.00119	416.85510	-598.00153	205.60197	327.70081	-818.64343	291.79102	993.06274	
11	0.100	-901.38416	446.76532	1016.35046	-929.13562	526.55627	912.90125	-904.22778	532.59418	1012.71503	-926.53601	442.03018	916.60706	-890.77106	490.50662	1032.27600	-776.86047	318.85483	984.34393	-804.77911	670.03699	986.83423	-770.93372	219.83232	620.89233	-615.60883	246.69162	388.69733	-652.55304	196.87621	384.89978	-578.75903	232.85158	284.72574	-711.87555	261.15317	824.49683	-807.19232	207.28076	760.96869	-809.60468	212.72252	828.27893	-714.15137	255.30612	758.48236	-625.87140	248.15509	463.05173	-686.25977	177.81049	398.95627	-698.26941	181.24992	445.11133	-616.78284	243.96603	416.97061	-598.00482	205.62598	327.64771	-818.64990	291.80945	993.03217	
12	0.110	-901.38855	446.75952	1016.30829	-929.18097	526.55737	912.82837	-904.20795	532.56128	1012.66217	-926.53656	442.06454	916.56488	-890.82489	490.52432	1032.27698	-777.01733	318.90771	984.46375	-804.85291	670.05963	986.86151	-770.93372	219.83232	620.89233	-615.29395	246.43675	388.73694	-652.09131	196.87125	384.70065	-578.69025	232.71693	284.92377	-712.02045	260.99985	824.50629	-807.27844	207.28812	761.10742	-809.76257	212.71161	828.40308	-714.24866	255.42384	758.55487	-625.85486	248.12419	463.17328	-685.56848	177.87701	399.19235	-698.10376	181.23750	445.18445	-616.78284	243.96603	416.97061	-597.93347	205.60118	327.71939	-818.64990	291.80945	993.03217	
13	0.120	-901.38483	446.82669	1016.23651	-929.19061	526.58600	912.85718	-904.21252	532.63373	1012.67322	-926.43842	442.07138	916.53430	-890.80811	490.45663	1032.23096	-776.98450	318.94354	984.51080	-804.84521	670.03931	986.85797	-770.98688	219.85806	620.96265	-615.29395	246.43675	388.73694	-651.89923	196.89412	384.80643	-578.63672	232.76656	284.94751	-711.93945	260.98129	824.52454	-807.01709	207.25523	761.00348	-809.76257	212.71161	828.40308	-714.24866	255.42384	758.55487	-625.75458	248.12363	463.08453	-684.86481	177.93437	399.41824	-697.94263	181.21288	445.24805	-616.78284	243.96603	416.97061	-597.93402	205.56085	327.68396	-818.69910	291.78073	993.12555	
14	0.130	-901.40869	446.80557	1016.20276	-929.11639	526.52087	912.79999	-904.21393	532.54913	1012.58234	-926.50134	442.06198	916.55322	-890.81213	490.45587	1032.23108	-777.01733	318.90771	984.46375	-804.84369	670.03839	986.89771	-770.98279	219.82855	621.06512	-615.30035	246.34863	388.69479	-651.56903	196.82953	384.86160	-578.53943	232.72549	285.10455	-711.79871	260.83670	824.47852	-807.01709	207.25523	761.00348	-809.65405	212.70177	828.42603	-714.24866	255.42384	758.55487	-625.78198	247.90446	463.04404	-684.91559	177.95433	399.48172	-697.86810	181.21902	445.28802	-616.69287	243.84335	416.98602	-597.74384	205.54404	327.85382	-818.70044	291.83536	993.07123	
15	0.140	-901.41394	446.80566	1016.20007	-929.16156	526.55713	912.80597	-904.26770	532.65912	1012.57129	-926.49835	442.12485	916.51379	-890.82007	490.46323	1032.20203	-776.98450	318.94354	984.51080	-804.86462	670.03796	986.86652	-770.87970	219.78683	621.01312	-615.29395	246.43675	388.73694	-651.42725	196.82123	385.00220	-578.30841	232.60648	285.22882	-711.83954	260.97437	824.55865	-807.16437	207.27988	761.13556	-809.65405	212.70177	828.42603	-714.15137	255.30612	758.48236	-625.78198	247.90446	463.04404	-684.89648	177.90765	399.54852	-697.82892	181.19647	445.29349	-616.65076	243.74910	417.10513	-597.68842	205.49608	327.85349	-818.79468	291.87576	993.19879	
16	0.150	-901.42139	446.81326	1016.15332	-929.12708	526.54663	912.73749	-904.22327	532.62378	1012.51801	-926.50842	442.12509	916.51355	-890.88281	490.55298	1032.21411	-776.98450	318.94354	984.51080	-804.87665	670.07068	986.85773	-770.71503	219.75377	621.01758	-615.32117	246.37654	388.78006	-651.30225	196.79538	384.94748	-578.21173	232.59091	285.18597	-711.77563	261.14621	824.53094	-807.01709	207.25523	761.00348	-809.65405	212.70177	828.42603	-714.24866	255.42384	758.55487	-625.57739	247.98271	463.11523	-684.84430	177.89633	399.45944	-697.69666	180.98228	445.27423	-616.69287	243.84335	416.98602	-597.53729	205.43854	327.99243	-818.67535	291.86713	993.14172	
17	0.160	-901.39624	446.80508	1016.18939	-929.04596	526.46667	912.70428	-904.18756	532.61975	1012.45966	-926.43665	442.09299	916.38495	-890.94958	490.53174	1032.19031	-776.95575	319.01886	984.52478	-804.86340	670.07343	986.87408	-770.46991	219.72118	620.97870	-615.30035	246.34863	388.69479	-651.29541	196.76244	385.00491	-578.05579	232.49290	285.23901	-711.73834	260.84610	824.50903	-806.77356	207.41440	761.11066	-809.65405	212.70177	828.42603	-714.24866	255.42384	758.55487	-625.68225	247.97794	463.20645	-684.78577	177.78395	399.58304	-697.66681	181.05212	445.34067	-616.64154	243.75038	417.06458	-597.48358	205.52586	327.88971	-818.67499	291.92285	993.15381	
18	0.170	-901.46021	446.85580	1016.18280	-929.09552	526.49365	912.68555	-904.22809	532.66046	1012.49811	-926.45599	442.13434	916.41785	-890.89752	490.43408	1032.15259	-776.95575	319.01886	984.52478	-804.91003	670.11115	986.84656	-770.39636	219.69398	620.96832	-615.30035	246.34863	388.69479	-651.24689	196.75380	384.97025	-578.00177	232.44153	285.34409	-711.64288	261.16074	824.59351	-806.89313	207.31491	761.23798	-809.65405	212.70177	828.42603	-714.24866	255.42384	758.55487	-625.69763	247.80290	463.16833	-684.54626	177.48175	399.70041	-697.22760	180.93559	445.37811	-616.56512	243.63362	417.11597	-597.43762	205.49594	327.87051	-818.66382	291.91702	993.23108	
